<svg xmlns="http://www.w3.org/2000/svg" viewBox="0 0 1080 1080" width="1080" height="1080" role="img" aria-label="GrowAI"><title>GrowAI</title><defs><linearGradient id="growai-g" gradientUnits="userSpaceOnUse" x1="0" y1="0" x2="174.28" y2="0"><stop offset="0" stop-color="#FE9426"/><stop offset="1" stop-color="#FF1A05"/></linearGradient></defs><rect width="1080" height="1080" fill="#0B0D12"/><g transform="translate(314.94 237.6) scale(2.58274)"><path fill="url(#growai-g)" fill-rule="evenodd" d="M76.75 0H174.28V33.37H140.06A76.75 76.75 0 1 1 76.75 0ZM118.01 75.46A42.13 42.13 0 1 0 33.75 75.46A42.13 42.13 0 1 0 118.01 75.46ZM1.53 158.67V158.95A75.22 75.22 0 0 0 151.97 158.95V158.67H116.98V158.91A40.23 40.23 0 0 1 36.52 158.91V158.67Z"/><circle cx="75.88" cy="75.46" r="15" fill="#FF6A1A" fill-opacity=".16"/><circle cx="75.88" cy="75.46" r="6.2" fill="#FF6A1A"/></g></svg>
